<svg xmlns="http://www.w3.org/2000/svg" viewBox="0 0 1536 864" role="img" aria-labelledby="t d">
<title id="t">Baggage Color Flow landscape cover</title><desc id="d">Bright airport conveyor puzzle key art with red, blue, yellow and green luggage.</desc>
<defs>
<linearGradient id="sky" x1="0" y1="0" x2="0" y2="1"><stop stop-color="#69d4ff"/><stop offset=".52" stop-color="#dff7ff"/><stop offset="1" stop-color="#f7fbff"/></linearGradient>
<linearGradient id="floor" x1="0" y1="0" x2="0" y2="1"><stop stop-color="#eaf4fa"/><stop offset="1" stop-color="#b5cbd8"/></linearGradient>
<filter id="sh"><feDropShadow dx="0" dy="16" stdDeviation="18" flood-opacity=".28"/></filter>
</defs>
<rect width="1536" height="864" fill="url(#sky)"/><rect y="500" width="1536" height="364" fill="url(#floor)"/>
<g opacity=".5"><rect x="1040" y="120" width="390" height="260" rx="25" fill="#d8eff7" stroke="#9fc7d6" stroke-width="5"/><rect x="1100" y="175" width="280" height="150" rx="18" fill="#c8e9f5"/><path d="M1120 316h248" stroke="#8ab5c7" stroke-width="10"/></g>
<g transform="translate(85 76)" filter="url(#sh)">
<rect x="0" y="0" width="820" height="330" rx="48" fill="#0b48a0"/>
<text x="52" y="142" font-family="Arial,Helvetica,sans-serif" font-size="118" font-weight="900" fill="#fff">Baggage</text>
<text x="52" y="275" font-family="Arial,Helvetica,sans-serif" font-size="118" font-weight="900"><tspan fill="#ff4242">C</tspan><tspan fill="#ffc62e">o</tspan><tspan fill="#24bcff">l</tspan><tspan fill="#45d755">o</tspan><tspan fill="#ff7b1e">r</tspan><tspan fill="#fff"> Flow</tspan></text>
<path d="M705 70l67-28 27 13-45 35 35 17-16 16-39-14-27 25-16-8 18-34-28-13z" fill="#fff"/>
</g>
<g transform="translate(0 0)" stroke="#647c89" stroke-width="22" fill="none" stroke-linecap="round">
<path d="M-30 728C280 665 450 660 735 720S1240 810 1590 675"/><path d="M-35 802C280 739 450 734 735 794S1240 884 1595 749"/>
</g>
<g stroke="#273b45" stroke-width="12"><path d="M0 742h1536"/><path d="M0 818h1536"/></g>
<g transform="translate(350 555)" filter="url(#sh)"><rect width="230" height="160" rx="34" fill="#f23f3f"/><rect x="62" y="-24" width="106" height="42" rx="18" fill="none" stroke="#732323" stroke-width="15"/><circle cx="44" cy="160" r="18" fill="#1d2930"/><circle cx="186" cy="160" r="18" fill="#1d2930"/></g>
<g transform="translate(725 642)" filter="url(#sh)"><rect width="230" height="160" rx="34" fill="#2189ff"/><rect x="62" y="-24" width="106" height="42" rx="18" fill="none" stroke="#174d83" stroke-width="15"/><circle cx="44" cy="160" r="18" fill="#1d2930"/><circle cx="186" cy="160" r="18" fill="#1d2930"/></g>
<g transform="translate(1020 520)" filter="url(#sh)"><rect width="190" height="135" rx="30" fill="#ffc62e"/><rect x="52" y="-20" width="88" height="36" rx="16" fill="none" stroke="#926e12" stroke-width="13"/><circle cx="38" cy="135" r="16" fill="#1d2930"/><circle cx="152" cy="135" r="16" fill="#1d2930"/></g>
<g transform="translate(1260 590)" filter="url(#sh)"><rect width="190" height="135" rx="30" fill="#45d755"/><rect x="52" y="-20" width="88" height="36" rx="16" fill="none" stroke="#257d31" stroke-width="13"/><circle cx="38" cy="135" r="16" fill="#1d2930"/><circle cx="152" cy="135" r="16" fill="#1d2930"/></g>
<g transform="translate(95 458)" font-family="Arial" fill="#173a55"><text font-size="30" font-weight="800">SORT · SWITCH · PLAN · FLOW</text><text y="46" font-size="22">Route every suitcase to the matching gate.</text></g>
<g transform="translate(1180 88)"><rect width="260" height="90" rx="24" fill="#fff" opacity=".9"/><text x="34" y="57" font-family="Arial" font-size="30" font-weight="800" fill="#184269">AIRPORT PUZZLE</text></g>
</svg>